<svg width="493" height="492" viewBox="0 0 493 492" fill="none" xmlns="http://www.w3.org/2000/svg">
<g id="cat">
<path id="eye1" d="M151.5 236C151.5 238.679 150.793 241.081 149.677 242.799C148.558 244.521 147.07 245.5 145.5 245.5C143.93 245.5 142.442 244.521 141.323 242.799C140.207 241.081 139.5 238.679 139.5 236C139.5 233.321 140.207 230.919 141.323 229.201C142.442 227.479 143.93 226.5 145.5 226.5C147.07 226.5 148.558 227.479 149.677 229.201C150.793 230.919 151.5 233.321 151.5 236Z" stroke="white"/>
<path id="eye2" d="M126.801 218.74C142.889 204.44 151.604 203.619 166.623 214.02C174.013 226.394 175.481 227.387 185.5 227.5L194 232.899C190.876 231.27 189 230 185.5 230.5C182 231 178.168 241.073 156.667 268.296C149.628 274.717 145.329 277.001 134.267 268.296C124.687 253.435 123.188 242.513 126.801 218.74Z" stroke="white" stroke-width="2"/>
<g id="wisk">
<path id="wisk11" d="M1 376.661C6.22723 369.258 13.3219 366.413 27 361.661L30 373.661C17.049 385.763 10.7526 393.243 1 407.661C11.5597 392.959 17.7817 384.19 31 373.661L40 390.661C16.516 408.92 8.37908 422.546 1 451.661" stroke="white"/>
<path id="wisk10" d="M62 491.661C58.5981 467.543 60.6648 452.995 68.7818 422.661C63.6251 458.343 63.1005 474.761 71 491.661" stroke="white"/>
<path id="wisk9" d="M97.5 486.388C87.0299 471.605 87.7858 461.614 88.5 437.661C89.914 461.583 93.0256 474.964 108.473 486.388C109.303 491.803 100.404 489.057 97.5 486.388Z" stroke="white"/>
<path id="wisk8" d="M319.5 489.66C285.564 439.586 257.661 412.004 215 393.799C196.866 386.061 182.28 377.106 151 374.66C119.72 372.215 121.992 372.147 106 373.291C179.339 378.642 210.292 389.769 251.06 421.143C285.013 448.559 297.304 462.008 310.5 489.66" stroke="white"/>
<path id="wisk7" d="M382 489.661C375.003 449.572 340.914 415.995 318 403.161C295.086 390.326 279.314 380.989 247.853 371.438C212.432 359.887 188.77 357.127 145 356.661C219.382 361.951 259.051 372.902 323.863 415.772C356.647 440.212 365.777 456.968 373.547 489.661" stroke="white"/>
<path id="wisk6" d="M147 349.338C229.508 343.457 276.598 338.395 337.643 382.38C350.074 399.058 339.801 406.262 337.643 407.188C335.485 408.114 334 399.16 335.101 395.911C336.201 392.661 344.322 393.522 312.224 374.146C280.125 354.77 217.711 344.86 170 346.16" stroke="white"/>
<path id="wisk5" d="M191 151.661C201.286 136.339 208.457 124.465 213.713 112.024C218.366 101.011 221.517 89.5535 224 74.8651C220.838 58.3528 216.852 50.6052 201.154 42.6606C196.949 40.4058 191.881 43.331 195 50.1605C198.119 56.99 201.154 52.5697 201.154 52.5697C201.656 44.3654 207.153 53.6902 213.713 61.6606C222.452 74.9641 222.382 84.014 216 102.161" stroke="white"/>
<path id="wisk4" d="M168.024 157.661C188.406 133.144 194.192 117.265 199.5 84.1606C199.5 84.1606 199.463 69.2502 199.5 67.6606C200.153 39.4156 198.287 34.8639 181.008 8.65682C170.79 1.93742 152.833 4.53417 152.444 15.9849C152.054 27.4356 163.125 20.5275 162.831 18.4276C162.567 13.055 161.313 2.81171 178.5 14.1605C194.067 31.6423 197.273 44.6735 198.5 70.1606" stroke="white"/>
<path id="wisk3" d="M151 41.6606C149.579 34.3313 129.067 31.532 131 41.6606C132.933 51.7892 127 48.6606 124.5 46.1606C122 43.6606 127.353 28.4927 136 29.1606C144.786 31.6905 150.488 35.7935 154.351 47.256C157.566 56.7963 162.631 68.8957 164.5 88.1606C167.188 115.893 163.195 130.541 158.976 151.661" stroke="white"/>
<path id="wisk2" d="M133.5 95.1606C125.957 57.9162 120.317 39.5644 108.722 29.1517C102.428 22.8256 97.9988 21.6728 89.3001 29.1517C83.3898 36.3683 81.8151 39.9568 82.0167 45.3577C82.4025 47.8681 83.0532 48.04 84.4445 47.6729C88.6586 42.3843 90.7495 38.1539 94.1556 31.4669C96.4955 26.3233 99.5909 25.4679 107.5 26.6606" stroke="white"/>
<path id="wisk1" d="M122 104.661C120.737 84.5447 115.539 74.9058 100.5 64.1605C95.0177 59.7817 91.269 59.6386 84.5 65.1605L77.5001 73.6606C76.6773 83.466 78.1345 84.8522 82.4677 87.43C85.8667 86.3616 84.6851 81.145 83.5763 76.903C82.3012 72.4686 82.1595 69.5491 85.5 65.6605" stroke="white"/>
</g>
<path id="wiskfat" d="M98 383C172.315 402.652 204.486 428.357 251 491C224.216 457.115 209.973 438.441 179.5 418C151.322 399.916 132.835 392.464 98 383Z" stroke="white"/>
</g>
</svg>
