<svg width="494" height="494" viewBox="0 0 494 494" fill="none" xmlns="http://www.w3.org/2000/svg">
<path d="M194 233.899L189.022 230.466M189.022 230.466C189.011 230.466 188.999 230.466 188.988 230.466M189.022 230.466C189.089 230.371 189.076 230.374 188.988 230.466M188.988 230.466C178.992 230.346 174.005 227.38 166.623 215.02C151.604 204.619 142.889 205.44 126.801 219.74C123.188 243.513 124.687 254.435 134.267 269.296C145.329 278.001 149.628 275.717 156.667 269.296C168.117 255.269 187.613 231.907 188.988 230.466ZM27 363C13.3219 367.753 6.22723 370.597 1 378M30 375C17.049 387.102 10.7526 394.582 1 409M40 392C16.516 410.259 8.37908 423.886 1 453M62 493C58.598 468.882 60.6647 454.335 68.7818 424C63.6251 459.683 63.1004 476.101 71 493M311.5 492C298.304 464.348 285.013 449.898 251.06 422.482C210.292 391.109 179.339 379.981 106 374.631C121.992 373.486 119.72 373.554 151 376C182.28 378.446 196.866 387.401 215 395.139C257.661 413.343 285.564 441.926 319.5 492M375.5 492C367.729 459.307 356.647 441.551 323.863 417.111C259.051 374.242 219.382 363.291 145 358C188.77 358.466 212.432 361.226 247.853 372.778C279.314 382.328 295.086 391.666 318 404.5C340.914 417.334 375.003 452.912 382 493M180.859 348.315C170.219 348.987 158.983 349.823 147 350.677C158.869 349.281 170.161 348.537 180.859 348.315ZM180.859 348.315C243.481 344.361 285.464 346.123 337.643 383.72C350.074 400.397 339.8 407.602 337.643 408.528C335.485 409.454 332.559 403 335.101 397.25C337.643 391.5 323.959 380.602 312.224 375.486C301.949 371.006 256.11 346.752 180.859 348.315ZM191 153C201.286 137.678 208.457 125.805 213.713 113.364M213.713 113.364C218.366 102.351 221.517 90.893 224 76.2046C220.838 59.6923 216.852 51.9446 201.154 44C195.498 44.6768 187.907 50.2203 193.538 53.9091C199.17 57.5979 203.692 53.9091 203.692 53.9091C218.399 58.4618 220.94 77.9449 213.713 113.364ZM168.024 159C188.406 134.483 196.474 118.824 201.782 85.7195C201.848 84.0509 201.901 82.4237 201.938 80.834M201.938 80.834C202.59 52.5891 198.287 36.2034 181.008 9.99629C170.79 3.27689 154.099 6.13533 152.444 17.3243C150.788 28.5133 162.084 21.6512 162.831 19.767C163.24 15.2609 162.551 5.74555 178.5 15.5C194.449 25.2544 201.938 80.834 201.938 80.834ZM154.351 48.5954C157.566 58.1358 162.631 70.2352 164.5 89.5C167.188 117.232 163.195 131.881 158.976 153M154.351 48.5954C153.735 46.768 153.077 45.0895 152.371 43.5487M154.351 48.5954C154.21 47.1386 153.482 45.3453 152.371 43.5487M152.371 43.5487C148.647 35.4245 143.576 31.1265 136.19 29C122.768 34.0286 123.687 39.2512 124 48.5954C128.61 53.0619 131 48.5954 131 43C131 37.4046 134.701 34.8605 139 35.5C143.534 33.7786 149.358 38.6761 152.371 43.5487ZM133.5 96.5C125.957 59.2556 120.317 40.9038 108.722 30.4911M108.722 30.4911C102.707 24.7533 98.59 24.2578 89.3 30.4911C83.3897 37.7078 81.8151 41.2962 82.0167 46.6971C82.4025 49.2075 83.0531 49.3795 84.4445 49.0123C88.1947 40.7466 90.3149 37.1059 94.1556 32.8063C98.6616 27.9097 101.824 27.296 108.722 30.4911ZM122 106C120.737 85.8842 115.539 76.2453 100.5 65.5C95.0176 61.1212 90.3452 59.978 83.5762 65.4999M83.5762 65.4999L77.5 75.0001C76.6772 84.8055 78.1344 86.1917 82.4676 88.7695C85.8666 87.7011 84.6851 82.4845 83.5763 78.2425C82.4675 74.0005 83.5762 65.4999 83.5762 65.4999ZM251 492C204.486 429.357 172.315 403.652 98 384M493 287.061C420.966 279.444 410.191 308.119 392.077 352.757L376.938 389.619L493 299.995M493 287.061V299.995M493 287.061L483.717 283.582C496.055 248.618 488.603 232.229 480.278 197.702L479.994 196.525C475.259 179.678 474.691 169.188 456.899 156.422C461.747 132.807 458.693 120.668 442.975 103.943C446.178 51.3267 445.046 29.4124 422 1M493 299.995L482.685 313.859C483.818 341.785 473.219 363.232 464.388 403.078C449.786 450.745 443.647 470.574 417.308 493M105.333 493C143.112 478.463 167.417 469.085 215.5 450.5C175.349 458.422 160.234 463.012 122.92 455.201C92.3594 442.302 68.7659 425.615 44.4999 397C28.972 383.591 30.541 380.085 24.9999 351.5C15.0677 343.008 11.5605 336.54 10.9999 313.859C17.3113 301.51 12.6173 298.705 25 291C55.9441 257.607 70.6394 236.018 74.5 187.5C77.5337 165.077 69.4592 156.493 82.5 140.5C98.1943 123.195 106.799 115.259 121.5 107C123.5 99.5 134.538 95.1474 140 97.5C209.083 73.4299 230.721 71.9471 299.685 80.12C309.231 71.3499 309.01 72.2992 321.327 81.1547L343.661 1M152 237C152 242.523 149.09 247 145.5 247C141.91 247 139 242.523 139 237C139 231.477 141.91 227 145.5 227C149.09 227 152 231.477 152 237ZM88.5 439C87.7857 462.954 87.0298 472.944 97.5 487.727C100.404 490.396 109.303 493.142 108.473 487.727C93.0256 476.304 89.9139 462.923 88.5 439Z" stroke="white" stroke-width="2"/>
</svg>
