<svg width="485" height="494" viewBox="0 0 485 494" fill="none" xmlns="http://www.w3.org/2000/svg">
<path d="M408.308 493C434.647 470.574 440.786 450.745 455.388 403.078C464.219 363.232 474.818 341.785 473.686 313.859L484 299.995L367.939 389.619L383.077 352.757C401.191 308.119 411.966 279.444 484 287.061L474.717 283.582C487.055 248.618 479.603 232.229 471.278 197.702L470.994 196.525C466.259 179.678 465.691 169.188 447.899 156.422C452.747 132.807 449.693 120.668 433.975 103.943C437.178 51.3267 436.468 29.4124 413.422 1H334.661L317.5 80.12C310.173 71.1737 301.781 70.3502 290.686 80.12C221.721 71.9471 200.083 73.4299 131 97.5C125.538 95.1474 114.5 99.5 112.5 107C97.7995 115.259 89.1943 123.195 73.5001 140.5C60.4592 156.493 68.5337 165.077 65.5001 187.5C61.6395 236.018 46.9441 257.607 16.0001 291C3.61738 298.705 8.31134 301.51 2 313.859C2.5606 336.54 6.06773 343.008 16 351.5C21.541 380.085 19.9721 383.591 35.5 397C59.766 425.615 83.3595 442.302 113.92 455.201C151.234 463.012 166.349 458.422 206.5 450.5C158.418 469.085 134.112 478.463 96.3327 493" stroke="white" stroke-width="2"/>
</svg>
