<svg width="491" height="494" viewBox="0 0 491 494" fill="none" xmlns="http://www.w3.org/2000/svg">
<g id="prettyGirl">
<path id="earRing1" d="M132.5 310.5C130.197 320.869 131 324.811 132.5 336C123.882 357.09 121.674 368.483 122.5 388C123.326 393.386 125.232 394.828 129 397C136.304 396.493 138.211 398.283 140 403C140 406.314 137.538 409 134.5 409C131.462 409 129 406.314 129 403C128.893 398.3 131.809 397.602 138 397C142.086 394.694 143.627 392.617 145.5 388C145.751 370.562 144.576 359.832 136 336C136.872 321.747 137.077 315.158 136 310.5" stroke="white" stroke-width="3"/>
<path id="earRing2" d="M326 415.5C323.646 420.15 323.818 422.785 325 427.5C335.149 431.128 340.001 433.305 341 438.5C341 441.538 338.761 444 336 444C333.239 444 331 441.538 331 438.5C330.011 436.195 334.196 433.254 346 426.5C351.145 415.789 351.991 408.337 348.5 391.5" stroke="white" stroke-width="3"/>
<path id="mouth" d="M299 379C292.168 377.773 282.833 376.906 276 378.176C271.381 375.871 268.751 374.722 263.5 374.676C254.128 373.398 251.372 373.624 242 375C237.02 374.327 234.125 373.22 228.5 368C237.119 372.542 241.933 372.534 250.5 370C257.268 364.888 261.783 363.755 271 364.5C277.156 369.31 280.295 368.949 285.5 364.5C295.284 367.572 299.459 371.059 306 378.5C309.854 378.21 312.281 377.448 317 375C312.988 377.64 310.718 379.098 305 380H300C299.374 383.289 298.837 385.046 297.5 388C290.877 395.67 286.663 397.865 278 397C272.731 394.406 269.282 393.406 260 394.5C253.347 394.505 249.824 393.165 245.5 378" stroke="white"/>
<path id="nose" d="M257 324.5C249.987 338.332 250.898 342.2 257 345.5C266.708 340.51 272.315 342.352 282.5 351C286.997 352.821 289.847 351.447 295 348.5C299.978 346.01 301.597 347.064 303.5 351C309.691 349.533 311.937 345.965 313 333" stroke="white"/>
<path id="nose1" d="M306 242.5C302.095 256.364 299.905 264.136 296 278C293.266 290.692 291.734 297.808 289 310.5C287.828 316.748 287.172 320.252 286 326.5C286 326.5 283 330.5 286 333C289 335.5 292 333 292 333C293.722 326.152 294.431 321.595 295 311.5C295.182 299.108 296.642 291.821 302.5 278C306.144 266.493 307.957 259.345 310.5 244.5" stroke="white"/>
<path id="rightPuple" d="M235.5 244C235.5 245.311 234.232 246.5 232.5 246.5C230.768 246.5 229.5 245.311 229.5 244C229.5 242.689 230.768 241.5 232.5 241.5C234.232 241.5 235.5 242.689 235.5 244Z" stroke="white"/>
<path id="rightEye" d="M279.5 220C260.258 213.508 249.314 210.964 229 212C216.636 209.558 207.5 209 202 211C196.5 213 193.616 211.308 189.5 210C193.761 211.905 195.671 213.539 202 213C211.507 212.423 216.695 213 225.5 215.5C246.996 216.34 253.106 219.516 265.5 224.5C268.624 226.062 270.376 226.938 273.5 228.5C282.423 233.038 283.79 235.973 283.5 241.5C280.453 249.065 278.011 251.747 272 253C269.277 253.466 267.859 252.529 265.5 248.5C257.145 238.669 251.477 231.371 240 227C234.337 226.093 231.163 225.955 225.5 227C208.604 226.211 201.515 227.647 197.5 237C210.83 234.411 219.326 234.975 235 237C243.782 239.801 247.926 242.728 255 248.5C260.534 253.12 263.35 255.996 268 261.5C269.289 266.468 267.374 265.443 266.5 264C268.102 263.24 247.07 244 241.07 241.5C234.57 238 231.405 239.857 227.5 240.5C226.962 240.45 223.931 243.946 223.5 246C223.069 248.054 223.51 250.814 224.5 255.5C227.631 260.793 230.144 261.456 235 261.5C240.553 261.004 243.033 259.602 246 254.5C247.727 251.429 248.207 249.565 246.5 245.5C241.743 240.761 237.771 239.841 230 239L210 241.5C198.868 242.971 192.628 242.688 181.5 240C177.046 239.271 174.903 238.09 172 234C170.663 230.29 170.555 228.21 172 224.5C171.146 228.457 172.71 228.5 173 230.5C173.29 232.5 177.394 239.647 185 238.5C191.835 238.101 195.955 237.526 203.5 236.256C203.08 246.861 205.806 251.711 213 259.5C220.864 265.623 227.634 265.849 241 264.5C250.105 263.797 254.272 264.618 261 267C264.609 268.818 266.029 268.586 268 267" stroke="white"/>
<path id="leftPuple" d="M361.002 264.952L360.985 265.13L361.037 265.208C361.037 265.211 361.037 265.215 361.036 265.219C361.029 265.292 361.004 265.405 360.954 265.551C360.856 265.84 360.678 266.2 360.436 266.537C359.929 267.242 359.285 267.667 358.612 267.513L358.557 267.5H358.5C357.823 267.5 357.346 267.234 357.025 266.816C356.692 266.384 356.5 265.751 356.5 265C356.5 264.298 356.789 263.532 357.267 262.944C357.735 262.368 358.339 262.015 358.961 262C360.123 262.199 360.599 262.505 360.821 262.865C361.066 263.261 361.106 263.87 361.002 264.952Z" stroke="white"/>
<path id="leftEye" d="M380.5 266C383.411 269.545 384.138 267.991 389 266.5C393.862 265.009 390 269 390 269C387.852 271.121 386.258 272.086 382 273C375.344 277.628 371.854 279.689 366 282.5C356.649 285.935 351.971 286.168 345 282.5C337.679 278.378 333.894 277.718 328 281C328 281 326.334 282.28 326.5 277.5C326.666 272.72 340.623 261.886 355.5 259.5C358.964 257.99 370.704 262.341 370 268C369.328 272.658 368.561 273.919 367 275.5C364.008 279.164 361.569 280.053 355.5 279C351.756 276.016 350.102 274.016 350.5 268C351.306 263.704 354.313 260.654 359 259.5C367.702 260.068 375.733 263.788 380 265.774C381.202 264.647 381.587 263.76 381.5 261.5C380.297 255.675 378.438 253.029 370 251C361.454 249.228 357.104 249.531 350 252C344.402 254.998 341.495 256.993 337 261.5C332.928 264.156 330.65 265.907 326.5 263.5C325.37 259.332 328.5 254 328.5 254C332.599 248.751 335.713 245.896 340.775 244C341.171 243.852 341.579 243.709 342 243.572C343.212 243.177 344.534 242.825 346 242.5C352.583 241.231 356.305 240.791 363 240.5C376.151 239.97 383.73 241.007 397.5 244.5C391.764 239.41 387.405 237.125 378.5 235C355.924 231.182 347.568 233.195 337 242.5C336.707 243.939 337.949 243.858 340.5 243.5" stroke="white"/>
<path id="hair" d="M377 490.5C375.101 479.392 371.809 475.757 361 475C364.618 472.448 365.939 470.442 367.5 466C370.023 466.694 371.134 466.046 373 464.5C401.525 437.067 400.311 422.203 383 394.5C383.785 383.895 383.477 377.643 380.5 365.5C378.314 357.338 377.589 352.142 377 342L383 326.5C386.114 344.173 391.06 345.859 404.5 337C393.514 340.448 388.608 340.631 387 331C406.447 328.225 410.997 320.414 410.5 298C414.072 276.562 412.356 272.523 401.5 282C408.57 278.473 410.554 280.074 410.5 289.5C402.09 304.188 397.79 305.033 393 294.5C392.955 277.806 396.053 269.83 407 258C417.405 248.702 420.833 241.172 421.5 222.5C440.688 214.523 443.707 201.291 444.5 173.5C447.09 136.995 446.048 121.547 432.5 117.5C431.469 110.005 430.557 104.69 425.885 100C424.691 98.801 423.251 97.643 421.5 96.5C409.797 44.1892 400.417 24.0346 382 14.5C376.893 12.5833 374.676 13.6204 372 19.5C363.725 14.2395 357.908 11.1872 350 9.2305C347.17 8.53038 344.073 7.97053 340.5 7.5C335.517 7.24626 332.764 7.4318 328 9C321.573 5.58796 317.873 3.40096 311 1H206.5L180.5 24L171 18.5C167.124 15.1835 165.179 13.0882 163 8L160.5 1.5L98.4998 3C93.9897 14.5655 93.3518 20.7274 93.4998 31.5C88.3094 40.0901 86.9517 44.8005 87.4998 53C81.258 64.555 78.5555 70.9182 78.9998 81.5C71.952 99.0088 70.494 108.458 69.9998 125C63.6163 143.944 63.8185 154.564 68.4998 173.5C65.4687 192.585 67.5068 201.962 74.4998 217.5C75.785 227.319 75.7845 232.131 74.4998 239.5C76.3771 266.167 79.3983 278.975 87.4998 301.5C75.5199 316.982 75.5459 334.494 79.9998 371.5L84.9998 408C89.0152 445.27 93.8452 464.337 110 493" stroke="white"/>
<path id="hair5" d="M374 488.5C372.362 482.472 370.144 480.747 362 483C350.674 486.005 344.327 485.905 333 483C328.906 479.15 326.954 476.795 324.5 472C322.541 462.627 322.68 457.373 324.5 448C326.07 444.795 327.212 443.568 330 443C324.852 455.807 324.769 462.412 328 473.5C335.42 484.284 342.706 484.357 357 482C361.942 480.573 364.841 480.175 370.5 481C365.566 477.802 362.004 477.353 354.5 478.5C346.346 479.606 341.859 479.334 334.5 472C330.504 463.735 330.678 457.873 333 446C332.835 461.233 334.082 467.426 340 472C342.245 473.345 340.325 475.044 345.5 475.5C350.675 475.956 352.541 472.786 357 470C350.535 471.162 347.557 470.318 343.5 466C341.836 458.137 342.814 454.141 344.5 447C344.075 453.445 344.082 456.823 345.5 461.5C348.966 467.697 352.058 467.729 358.5 465C351.047 460.706 347.772 457.456 348 446C349.116 431.536 353.056 427.563 364.5 426C373.59 432.666 371.357 436.71 365.5 444C368.359 435.218 369.869 430.383 363.5 430.5C358.127 429.617 356.18 432.969 353 440C350.992 446.746 351.917 449.672 354.5 454.5C360.988 463.503 365.023 462.799 372.5 457.5" stroke="white"/>
<path id="hair4" d="M152 135.5C150.316 123.368 151.425 116.497 160.5 104C173.741 74.3198 183.968 64.9596 210 68.5C215.084 61.3474 218.591 58.1305 227 55C236.454 45.8294 243.133 43.4201 258 45C269.654 33.4705 277.254 29.6541 294.5 32C307.283 19.4889 314.72 13.4924 329.5 8.5C318.843 12.7948 312.9 15.4065 303 24.5C290.428 31.9191 288.573 46.6844 285.5 73.5C286.62 90.0207 289.813 95.6272 297 103.5C301.87 109.24 313.5 120 313.5 120C332.57 130.276 342.677 132.777 359.5 130.5C378.165 124.691 386.784 118.989 395.5 100C397.981 83.7516 397.817 74.3669 394 57C387.757 35.2919 381.735 27.8081 368 20C373.232 26.2537 375.994 29.6619 380.5 35.5C388.373 59.1182 385.181 68.7194 372.5 82.5C349.044 90.4244 336.889 88.5497 318 67.5C307.822 51.3341 305.547 41.6132 316 21.5C324.051 12.5841 331.579 10.0235 350 9.5" stroke="white"/>
<path id="hair3" d="M120.5 270C116.755 268.618 115.431 266.808 115 261C112.655 258.769 111.837 257.058 112 252.5C108.153 248.331 107.565 245.462 110.5 239C107.153 235.082 106.344 232.664 109 227.5C106.784 221.99 106.915 218.922 110.5 213.5C107.359 209.399 107.054 207.101 110.5 203C109.207 199.402 108.759 196.957 109 191C103.348 182.896 100.152 177.08 100.865 167C98.6162 162.705 100.945 154.401 103 155C100.865 152 102.281 145.91 103 137C103 137 101.975 128.183 103 122C102.183 115.895 102.912 113.179 107 110C105.378 98.6383 106.107 94.1381 113 92.5C112.584 84.6764 114.439 81.6062 121.5 78.5C120.676 58.2854 122.668 51.9569 133 54.5C135.113 41.9581 137.08 37.2521 144.5 40.5C145.654 36.7245 146.718 35.374 150 35.5C152.54 27.9667 154.517 24.8215 160.5 24C162.612 18.3426 165.55 17.4823 175 21.5C192.364 39.3916 196.419 49.3106 203.5 67" stroke="white"/>
<path id="hair1" d="M123.5 361.5C118.431 351.346 114.416 348.464 105.5 347.5C97.0643 348.822 94.7584 353.547 93 362.5C92.4331 374.557 91.5001 379 102.5 381.5C113.5 384 114.5 373 114.5 373C114.5 373 117.5 364 111 360C104.5 356 102.857 357.937 99.5001 362C104.782 358.904 106.954 359.217 111.5 363.5C114.342 366.178 113.658 368.877 113 372C111.805 380.939 102.199 379.506 100.5 378.5C97.6644 378.984 91.6807 367.821 98.5001 355C106.616 346.515 112.981 349.801 122.5 363.5" stroke="white"/>
<path id="hair2" d="M142.5 349.5L155.5 368.5C161.26 385.852 161.242 395.307 160.5 413C146.728 411.972 141.478 416.37 133 426C144.415 414.259 151.494 409.141 172 417C189.021 422.555 198.575 436.598 203 455C223.234 461.513 228.524 470.271 232.5 490.5H230.5C228.397 475.468 224.993 467.593 203 457.5C191.822 454.896 186.215 454.549 177.5 456C175.607 456.118 173.116 459.903 169.5 464.5C158.009 469.73 152.425 469.1 144.5 459.5C145.233 450.202 146.887 446.753 154 446.5C160.018 445.409 160.389 448.603 160.5 455C162.273 451.814 162.435 449.691 160.5 445C156.38 442.021 153.629 441.732 147.5 445C139.105 456.444 140.782 461.658 151.5 469.5C165.046 470.37 171.622 468.84 179 457.5C186.031 441.037 182.802 434.846 169.5 427C153.9 417.622 143.963 418.942 124 433.5C109.858 437.754 105.416 432.911 101 417C87.0343 402.689 85.8873 389.967 88.5 364C84.1553 343.964 85.3416 332.491 93.5 313.5L87 300.5C93.1434 314.691 98.3553 320.579 109 329.5C117.808 332.392 122.276 332.077 130 330.5" stroke="white"/>
<path id="face" d="M222 436.5C173.131 394.217 148.276 367.681 144.5 305C142.926 312.197 141.648 315.749 136.5 315L135 304L131.5 308.5C127.469 297.987 125.877 291.875 124.5 280.5C117.444 250.264 118.213 234.861 124.5 209C122.107 225.524 121.362 234.656 122 250.5C121.922 265.22 124.359 271.55 128.5 283L127 270C122.922 250.478 123.41 240.062 127 222C131.616 210.544 133.485 204.566 127 200C128.521 193.426 130.228 190.857 136.5 190.5C141.92 197.644 139.113 206.765 133 224C127.027 244.857 127.86 255.606 135 273.5C132.106 289.621 135.215 295.21 146.5 301L156 307.5C173.53 307.39 177.766 301.168 177 280.5C171.978 269.457 168.102 268.576 159.5 275.5H165C162.833 287.95 159.544 293.2 150 299.5C142.827 292.283 141.556 285.098 143.5 267.5L150 270C158.272 267.153 159.244 261.481 157.5 247.5L155 262C150.378 268.661 148.138 268.74 145 260C148.697 251.272 151.502 246.825 157.5 239.5C167.317 232.204 170.659 226.783 174 215.5C190.005 207.224 194.115 200.885 195.5 187.5C229.614 185.116 242.294 178.322 250.5 154C279.658 156.793 294.069 149.591 316.5 122C332.829 129.473 341.073 131.638 354 131.5C355.018 139.026 364.482 142.641 367 145.5C369.518 148.359 372.095 161.015 379.5 164.5C383.553 181.531 389.985 186.924 406 192C405.431 220.622 404.093 235.872 396.5 259C378.534 325.752 366.26 367.282 337.119 403C327.547 412.62 316.326 421.623 303 430.5C264.944 454.48 248.191 456.49 222 436.5Z" stroke="white"/>
<path id="body" d="M1 490.5L20 263.5C21.1577 143.578 31.0602 84.7464 71.5 0.5M467 1.5C496.903 98.2668 496.659 150.813 471 242C467.229 356.79 449.935 404.832 420 491.5" stroke="black"/>
</g>
</svg>
