<svg width="491" height="494" viewBox="0 0 491 494" fill="none" xmlns="http://www.w3.org/2000/svg">
<g id="prettyGirl">
<g id="earRing1">
<path d="M140 403C140 406.314 137.538 409 134.5 409C131.462 409 129 406.314 129 403C129 399.686 131.462 397 134.5 397C137.538 397 140 399.686 140 403Z" stroke="white" stroke-width="3"/>
<path d="M132.5 336C131 324.811 131.697 318.869 134 308.5C137.864 321.498 137.954 327.264 136 336C144.576 359.832 145.751 370.562 145.5 388C136.703 400.928 131.685 401.929 122.5 388C121.674 368.483 123.882 357.09 132.5 336Z" stroke="white" stroke-width="3"/>
</g>
<g id="earRing2">
<path d="M341 438.5C341 441.538 338.761 444 336 444C333.239 444 331 441.538 331 438.5C331 435.462 333.239 433 336 433C338.761 433 341 435.462 341 438.5Z" stroke="white" stroke-width="3"/>
<path d="M325 427.5C323.818 422.785 323.646 420.15 326 415.5C335.519 406.482 340.466 401.237 348.5 391.5C351.991 408.337 351.145 415.789 346 426.5C336.262 433.621 331.63 433.997 325 427.5Z" stroke="white" stroke-width="3"/>
</g>
<path id="mouth" d="M245.5 378C249.824 393.165 253.347 394.505 260 394.5C269.282 393.406 272.731 394.406 278 397C286.663 397.865 290.877 395.67 297.5 388M228.5 367.5C237.119 372.042 241.933 372.034 250.5 369.5C257.268 364.388 261.783 363.255 271 364C277.156 368.81 280.295 368.449 285.5 364C295.284 367.072 299.459 370.559 306 378C309.854 377.71 312.281 376.948 317 374.5C309.857 379.839 306.079 383.684 296 378C289.168 376.773 285.333 376.729 278.5 378C273.881 375.695 271.251 374.546 266 374.5C256.628 373.222 251.372 373.124 242 374.5C237.02 373.827 234.125 372.72 228.5 367.5Z" stroke="white"/>
<path id="nose" d="M257 324.5C249.987 338.332 250.898 342.2 257 345.5C266.708 340.51 272.315 342.352 282.5 351C286.997 352.821 289.847 351.447 295 348.5C299.978 346.01 301.597 347.064 303.5 351C309.691 349.533 311.937 345.965 313 333M310.5 244C308.117 260.953 305.836 269.387 300.5 283C295.739 295.25 295.653 302.555 295 315.5C294.541 323.468 294.018 327.354 292.5 333" stroke="white"/>
<g id="eyeRight1">
<path id="Vector 1" d="M279.5 220C260.258 213.508 249.314 210.964 229 212C216.636 209.558 207.5 209 202 211C196.5 213 193.616 211.308 189.5 210C193.761 211.905 195.671 213.539 202 213C211.507 212.423 216.695 213 225.5 215.5C246.996 216.34 253.106 219.516 265.5 224.5L273.5 228.5M265.5 245C257.145 235.169 251.477 231.371 240 227C234.337 226.093 231.163 225.955 225.5 227C208.604 226.211 201.515 227.647 197.5 237M197.5 237C212.661 234.971 220.927 234.749 235 237C243.782 239.801 247.926 242.728 255 248.5C260.534 253.12 263.35 255.996 268 261.5C259.603 254.939 254.256 250.842 246 245.6M197.5 237L185 238.5C177.394 239.647 173.29 232.5 173 230.5C172.71 228.5 171.146 228.457 172 224.5C170.555 228.21 170.663 230.29 172 234C174.903 238.09 177.046 239.271 181.5 240C190.457 241.931 196.247 242.677 203.5 242.192M268 267C266.029 268.586 264.609 268.818 261 267C254.272 264.618 250.105 263.797 241 264.5C227.634 265.849 220.864 265.623 213 259.5C208.508 255.651 202.217 244.06 203.5 242.192M203.5 242.192C205.52 242.057 207.653 241.827 210 241.5C217.918 239.915 223.538 239.305 229 239.796M246 245.6C244.449 244.615 242.796 243.59 241 242.5C236.586 241.027 232.832 240.141 229 239.796M246 245.6C247.927 251.298 247.473 252.723 246 254.5C243.033 259.602 240.553 261.004 235 261.5C230.144 261.456 227.631 260.793 224.5 255.5C223.51 250.814 223.5 245.5 224.5 243.5C225.5 241.5 229 239.796 229 239.796" stroke="white"/>
<ellipse id="Ellipse 1" cx="232.5" cy="244" rx="3.5" ry="3" fill="white"/>
</g>
<g id="eyeLeft1">
<path id="Vector" d="M397.5 244C391.764 238.91 387.404 237.125 378.5 235C355.924 231.182 347.068 233.195 336.5 242.5C340.211 244.715 342.289 244.425 346 242.5C352.583 241.231 356.304 240.791 363 240.5C376.151 239.97 383.73 241.007 397.5 244.5M328.5 254C325.934 257.282 325.37 259.332 326.5 263.5C330.65 265.907 332.928 264.156 337 261.5C341.495 256.993 344.402 254.998 350 252C357.104 249.531 361.454 249.228 370 251C378.438 253.029 380.297 255.675 381.5 261.5M325 279C325.202 276.138 339.551 261.343 359 258C369.351 258.676 378.754 265.935 382 266.5C385.246 267.065 383.779 267.237 389 266.5C394.221 265.763 382.274 274.56 382 273C375.344 277.628 371.854 279.689 366 282.5C356.649 285.935 351.971 286.168 345 282.5C337.679 278.378 333.893 277.718 328 281C326.814 281.319 324.798 281.862 325 279ZM357.5 261C352.812 262.154 351.306 263.704 350.5 268C350.102 274.016 351.756 276.016 355.5 279C361.569 280.053 364.008 279.164 367 275.5L370 268C370.198 265.984 369.873 264.75 367 262C363.328 261.244 361.241 261.099 357.5 261Z" stroke="white"/>
<circle id="Ellipse 2" cx="359" cy="265" r="3" fill="white"/>
</g>
<path id="hair" d="M129.5 330.5C109.543 333.995 99.5457 328.203 87.4998 301.5M87.4998 301.5C79.3983 278.975 76.3771 266.167 74.4998 239.5C75.7845 232.131 75.785 227.319 74.4998 217.5C67.5068 201.962 65.4687 192.585 68.4998 173.5C63.8185 154.564 63.6163 143.944 69.9998 125C70.494 108.458 71.952 99.0088 78.9998 81.5C78.5555 70.9182 81.258 64.555 87.4998 53C86.9517 44.8005 88.3094 40.0901 93.4998 31.5C93.3518 20.7274 93.9897 14.5655 98.4998 3L160.5 1.5L163 8C165.179 13.0882 167.124 15.1835 171 18.5M87.4998 301.5C75.5199 316.982 75.5459 334.494 79.9998 371.5L84.9998 408C89.0152 445.27 93.8452 464.337 110 493L377 490.5C375.101 479.392 371.809 475.757 361 475C364.618 472.448 365.939 470.442 367.5 466C370.023 466.694 371.134 466.046 373 464.5C401.525 437.067 400.311 422.203 383 394.5C383.785 383.895 383.477 377.643 380.5 365.5C378.314 357.338 377.589 352.142 377 342L383 326.5C386.114 344.173 391.06 345.859 404.5 337C393.514 340.448 388.608 340.631 387 331C406.447 328.225 410.997 320.414 410.5 298C414.072 276.562 412.356 272.523 401.5 282C408.57 278.473 410.554 280.074 410.5 289.5C402.09 304.188 397.79 305.033 393 294.5C392.955 277.806 396.053 269.83 407 258C417.405 248.702 420.833 241.172 421.5 222.5C440.688 214.523 443.707 201.291 444.5 173.5C447.09 136.995 446.048 121.547 432.5 117.5C431.469 110.005 430.557 104.69 425.885 100M171 18.5L180.5 24L206.5 1.5H311C317.872 3.90096 321.573 5.58796 328 9M171 18.5C172.141 19.4345 173.236 20.3567 174.29 21.2716M328 9C332.764 7.4318 335.517 7.24626 340.5 7.5C344.073 7.97053 347.17 8.53037 350 9.2305M328 9C325.442 8.3213 304.247 21.4315 295 32M316 122C285.92 96.2981 276.488 76.1367 295 32M295 32C278.878 29.2277 270.693 32.2135 257.5 45C243.781 43.0935 237.077 45.1909 227 55C219.694 57.2451 215.908 59.9114 210 68.5C207.722 68.1636 205.56 67.9178 203.5 67.775M350 9.2305C357.908 11.1872 363.725 14.2395 372 19.5C374.676 13.6204 376.893 12.5833 382 14.5C400.417 24.0346 409.797 44.1892 421.5 96.5C423.251 97.643 424.691 98.801 425.885 100M350 9.2305C321.614 10.7843 314.754 17.7371 310.5 35.5C308.106 48.0346 310.01 54.1893 316 64.5C334.109 87.8454 346.77 90.1886 372 83C385.519 69.5018 388.078 58.3034 380.5 35.5L367.5 19.5C378.992 26.9373 385.49 30.773 394 56.5C397.726 76.8109 398.325 86.6216 395.5 100C385.235 120.119 376.329 127.252 354 131.5M152 136C149.872 123.054 151.521 115.929 160.5 103.5C173.346 74.5688 183.686 66.4017 203.5 67.775M203.5 67.775C195.252 44.9039 188.672 33.7617 174.29 21.2716M120.5 270C116.172 268.461 114.614 266.731 115 260.5C111.984 258.103 111.324 256.342 112 252.5C107.779 247.201 107.505 244.135 110.5 238.5C106.338 233.949 106.774 231.444 109 227C106.062 221.092 106.834 218.081 110.5 213C107.19 208.947 107.32 206.764 110.5 203C108.882 198.004 108.659 195.408 109 191C103.294 183.598 100.85 178.87 101 167C100.21 159.908 99.7962 155.976 103 155C102.02 150.785 101.933 147.273 103 138C101.927 131.448 102.024 127.973 103 122C101.958 115.164 102.699 112.326 107 109.5C105.154 97.6498 106.376 93.8073 113 92.5C112.272 84.5894 114.131 81.5235 121.5 78.5C120.651 57.2517 122.979 51.6773 133 55C134.835 40.9723 137.24 37.4497 144.5 40.5C146.314 35.868 147.475 34.4315 150 35.5C152.304 26.952 154.732 24.7229 160.5 24C162.344 18.439 165.147 17.5666 174.29 21.2716M425.885 100C421.081 62.6035 416.068 41.396 392 2M93.0002 313.5C83.5313 334.103 84.4637 345.099 88.5002 364.5C85.6797 396.827 89.4705 406.907 101.5 417C105.065 434.172 110.351 436.787 123.5 433.5C126.493 431.6 129.087 429.434 131.5 427.238M232.5 491C227.459 467.212 220.765 459.8 203 455.5C206.906 449.515 186.475 417.212 172 417C167.419 415.022 163.471 413.865 160 413.358M131.5 427.238C149.533 419.055 158.039 418.847 170 427.238C183.186 435.261 184.904 441.595 180.051 455.355M131.5 427.238C140.026 419.48 146.303 411.358 160 413.358M180.051 455.355C180.034 455.403 180.017 455.452 180 455.5C172.202 468.836 165.494 470.977 151 469C139.699 459.838 139.395 454.461 148 444.5C153.677 441.914 156.347 441.805 160 444.5C162.524 449.148 162.33 451.529 160 455.5C160.576 447.456 159.544 445.045 154 446.5C146.794 446.25 145.289 449.974 144.5 459.5C152.139 469.684 157.83 470.268 170 464L177.5 455.5C178.383 455.443 179.231 455.394 180.051 455.355ZM180.051 455.355C188.582 454.943 194.014 455.502 203 457.5C224.159 467.028 227.899 474.684 230.5 489.5M160 413.358C161.179 393.966 161.598 383.249 155.5 368.5C150.567 360.845 147.177 356.025 140 346.5M123.5 362C119.182 352.786 115.479 349.234 106 346.5C93.5537 353.161 92.8429 359.581 95 372.5C97.6571 380.478 100.135 382.507 106 382.5L106.112 382.441C111.006 379.843 113.785 378.369 116.5 370.5C115.67 363.237 113.923 360.023 107.5 356.5C102.04 355.518 100.197 356.563 98.5 360.5C103.329 358.86 105.722 358.899 109 362C111.003 363.948 110.386 367.32 110.5 374.5C110.614 381.68 98.4658 380.796 98.5 374.5C97.6862 367.368 95.332 362.203 101.5 352C108.241 347.869 112.996 350.645 123 363.5M372.5 457.5C365.19 463.94 361.023 462.639 353.5 454C350.025 444.4 351.306 439.264 359 430.5C370.06 429.249 369.063 433.933 365 444C371.57 437.261 373.628 433.411 365 426C351.674 426.962 349.501 432.773 348.5 446C347.493 457.987 351.739 460.407 359 465C352.325 467.397 348.901 467.932 345.5 462C343.108 456.534 343.743 452.823 345.5 446C342.233 455.023 341.03 459.889 344 467C348.972 470.717 351.9 471.519 357.5 469.5C353.149 472.807 350.605 474.363 345.5 475.5C335.273 470.832 332.385 464.154 333 444C332.082 454.69 329.65 460.372 334.5 472C340.156 477.524 343.468 480.494 357.5 478.5C364.245 477.895 367.056 478.596 371 481C361.263 480.99 358.953 481.468 356 482.5C341.258 484.693 334.403 483.807 328 473.5C325.242 462.235 324.469 455.736 330 442.5C327.121 444.419 325.71 445.668 324.5 449C322.285 458.313 322.38 463.335 324.5 472C327.23 476.578 329.346 478.67 333 482.5C342.553 485.998 347.92 486.14 357.5 484C370.591 480.381 373.455 482.235 374 489.5" stroke="white"/>
<path id="face" d="M222 436.5C173.131 394.217 148.276 367.681 144.5 305C142.926 312.197 141.648 315.749 136.5 315L135 304L131.5 308.5C127.469 297.987 125.877 291.875 124.5 280.5C117.444 250.264 118.213 234.861 124.5 209C122.107 225.524 121.362 234.656 122 250.5C121.922 265.22 124.359 271.55 128.5 283L127 270C122.922 250.478 123.41 240.062 127 222C131.616 210.544 133.485 204.566 127 200C128.521 193.426 130.228 190.857 136.5 190.5C141.92 197.644 139.113 206.765 133 224C127.027 244.857 127.86 255.606 135 273.5C132.106 289.621 135.215 295.21 146.5 301L156 307.5C173.53 307.39 177.766 301.168 177 280.5C171.978 269.457 168.102 268.576 159.5 275.5H165C162.833 287.95 159.544 293.2 150 299.5C142.827 292.283 141.556 285.098 143.5 267.5L150 270C158.272 267.153 159.244 261.481 157.5 247.5L155 262C150.378 268.661 148.138 268.74 145 260C148.697 251.272 151.502 246.825 157.5 239.5C167.317 232.204 170.659 226.783 174 215.5C190.005 207.224 194.115 200.885 195.5 187.5C229.614 185.116 242.294 178.322 250.5 154C279.658 156.793 294.069 149.591 316.5 122C332.829 129.473 341.073 131.638 354 131.5C355.018 139.026 364.482 142.641 367 145.5C369.518 148.359 372.095 161.015 379.5 164.5C383.553 181.531 389.985 186.924 406 192C405.431 220.622 404.093 235.872 396.5 259C378.534 325.752 366.26 367.282 337.119 403C327.547 412.62 316.326 421.623 303 430.5C264.944 454.48 248.191 456.49 222 436.5Z" stroke="white"/>
<path id="body" d="M1 490.5L20 263.5C21.1577 143.578 31.0602 84.7464 71.5 0.5M467 1.5C496.903 98.2668 496.659 150.813 471 242C467.229 356.79 449.935 404.832 420 491.5" stroke="black"/>
</g>
</svg>
